Coordinates
nRows=4
nColumns=38

# SIMM Motion File Header:
name Coordinates
datacolumns 38
datarows 4
otherdata 1
range 2.01149999999999980000 2.01450000000000000000

Units are S.I. units (second, meters, Newtons, ...)
Angles are in degrees.

endheader
time	pelvis_tilt	pelvis_list	pelvis_rotation	pelvis_tx	pelvis_ty	pelvis_tz	hip_flexion_r	hip_adduction_r	hip_rotation_r	knee_angle_r	ankle_angle_r	subtalar_angle_r	mtp_angle_r	hip_flexion_l	hip_adduction_l	hip_rotation_l	knee_angle_l	ankle_angle_l	subtalar_angle_l	mtp_angle_l	lumbar_extension	lumbar_bending	lumbar_rotation	arm_flex_r	arm_add_r	arm_rot_r	elbow_flex_r	pro_sup_r	wrist_flex_r	wrist_dev_r	arm_flex_l	arm_add_l	arm_rot_l	elbow_flex_l	pro_sup_l	wrist_flex_l	wrist_dev_l
      2.01149999999999980000	      0.64815381292353114000	     -0.46056163117539828000	     -0.46621248480430794000	      1.24046449834217310000	      1.03692013726265620000	     -0.31631335620356454000	    -15.19387912474833500000	      4.46643661529890500000	     10.23972644889835100000	    -30.32059178602536400000	    -18.25227569481554800000	     -0.00000000000001415826	      0.00000000000007290590	      9.45112194489560760000	      4.13629505141420230000	     11.48504891721354100000	     -1.13784935411099530000	      7.42118363228067590000	     -0.00000000000000560514	      0.00000000000001092936	     -9.21251272154678700000	      0.22926311198227620000	     17.84873214997831100000	    -32.65385832688165400000	    -19.80906320933903000000	      5.00528882691208120000	    137.15315199747266000000	    100.31490710362345000000	      0.00000000000000050122	     -0.00000000000000352965	    -51.86545250667295200000	    -12.96013316662393500000	     -9.14291398186354520000	    135.27216883920704000000	     92.77345359994338000000	     -0.00000000000000284614	      0.00000000000001594288
      2.01249999999999970000	      0.72142925757812093000	     -0.45424952459512435000	     -0.48071411153569604000	      1.24036701205556480000	      1.03663106010712540000	     -0.31631660523517946000	    -15.14522066312487600000	      4.46224387068146560000	     10.26436770095494700000	    -30.68680123375773100000	    -18.21199361531812100000	     -0.00000000000001426749	      0.00000000000007319053	      9.38722403557089360000	      4.17220072424650730000	     11.49780070279098600000	     -1.21381165732690670000	      7.40956758646762030000	     -0.00000000000000564080	      0.00000000000001095802	     -9.31954367139233850000	      0.21900089622860217000	     17.80298317302465000000	    -32.65468289933321000000	    -19.76937023580332200000	      4.99977466755734400000	    137.00877680040367000000	    100.34366481755788000000	      0.00000000000000049816	     -0.00000000000000353687	    -51.71425421410925300000	    -12.98331297391040100000	     -9.10770313450163730000	    135.21959325129700000000	     92.74238378023424900000	     -0.00000000000000285376	      0.00000000000001601148
      2.01350000000000010000	      0.79511985434267551000	     -0.44664685224436340000	     -0.49499135371570080000	      1.24026825028862620000	      1.03633328913539220000	     -0.31632090945968899000	    -15.09494182035161800000	      4.45612931316704410000	     10.28377536017082200000	    -31.05636972641155700000	    -18.16470223677095700000	     -0.00000000000001437940	      0.00000000000007347333	      9.32375540858867250000	      4.21013840835965870000	     11.51134958516853300000	     -1.29614157217735640000	      7.39339312487404500000	     -0.00000000000000567418	      0.00000000000001098379	     -9.42707871592758910000	      0.20736660453974937000	     17.75603873553696500000	    -32.65462447466952500000	    -19.72837172783729200000	      4.99394891285320150000	    136.86215683332887000000	    100.37311927067267000000	      0.00000000000000049519	     -0.00000000000000354489	    -51.56180711189561100000	    -13.00696697864588800000	     -9.07220462873161710000	    135.16584439784020000000	     92.71104357961947100000	     -0.00000000000000286118	      0.00000000000001607994
      2.01450000000000000000	      0.86917272544910162000	     -0.43775215567873760000	     -0.50907163583416115000	      1.24016822834135490000	      1.03602671758056800000	     -0.31632622462294335000	    -15.04298616703182700000	      4.44804001479178180000	     10.29795091395779700000	    -31.42926394033648700000	    -18.11044944350142000000	     -0.00000000000001449316	      0.00000000000007375953	      9.26075471805835800000	      4.25009196714705780000	     11.52561786416988100000	     -1.38477662519656390000	      7.37254510608304600000	     -0.00000000000000570746	      0.00000000000001100935	     -9.53504976341438320000	      0.19435539863198001000	     17.70793215479391200000	    -32.65371332439590900000	    -19.68607215358199300000	      4.98781125486389240000	    136.71331343198983000000	    100.40325299344708000000	      0.00000000000000049219	     -0.00000000000000355253	    -51.40813160113312100000	    -13.03111838575976500000	     -9.03642651723880340000	    135.11093352461594000000	     92.67943583055605900000	     -0.00000000000000286853	      0.00000000000001614852
